<svg xmlns="http://www.w3.org/2000/svg" viewBox="0 0 1600 1000" preserveAspectRatio="xMidYMid slice">
  <defs>
    <linearGradient id="petal-base" x1="0" y1="0" x2="0.9" y2="1">
      <stop offset="0" stop-color="#fdf6f3"/>
      <stop offset="0.6" stop-color="#f9e6ec"/>
      <stop offset="1" stop-color="#f3d3de"/>
    </linearGradient>
    <filter id="soft"><feGaussianBlur stdDeviation="80"/></filter>
  </defs>
  <rect width="1600" height="1000" fill="url(#petal-base)"/>
  <g filter="url(#soft)">
    <circle cx="1320" cy="200" r="250" fill="#e78bb0" fill-opacity="0.35"/>
    <circle cx="220" cy="760" r="270" fill="#c2497c" fill-opacity="0.2"/>
  </g>
  <g fill="#c2497c">
    <ellipse cx="320" cy="220" rx="46" ry="20" fill-opacity="0.14" transform="rotate(-32 320 220)"/>
    <ellipse cx="520" cy="130" rx="38" ry="16" fill-opacity="0.1" transform="rotate(24 520 130)"/>
    <ellipse cx="1140" cy="640" rx="52" ry="22" fill-opacity="0.12" transform="rotate(-18 1140 640)"/>
    <ellipse cx="1360" cy="820" rx="40" ry="17" fill-opacity="0.1" transform="rotate(38 1360 820)"/>
    <ellipse cx="820" cy="380" rx="34" ry="14" fill-opacity="0.08" transform="rotate(-52 820 380)"/>
    <ellipse cx="640" cy="860" rx="44" ry="19" fill-opacity="0.11" transform="rotate(12 640 860)"/>
  </g>
  <g fill="none" stroke="#a93a69" stroke-opacity="0.12">
    <path d="M-60 300 Q 400 180 830 290 T 1700 260" stroke-width="1.6"/>
    <path d="M-60 380 Q 400 260 830 370 T 1700 340" stroke-width="1"/>
  </g>
</svg>
