<svg xmlns="http://www.w3.org/2000/svg" viewBox="0 0 1600 1000" preserveAspectRatio="xMidYMid slice">
  <defs>
    <linearGradient id="rose-noite-base" x1="0" y1="0" x2="0.8" y2="1">
      <stop offset="0" stop-color="#4a2438"/>
      <stop offset="0.6" stop-color="#33202b"/>
      <stop offset="1" stop-color="#1c1016"/>
    </linearGradient>
    <filter id="soft"><feGaussianBlur stdDeviation="80"/></filter>
  </defs>
  <rect width="1600" height="1000" fill="url(#rose-noite-base)"/>
  <g filter="url(#soft)">
    <circle cx="1300" cy="220" r="240" fill="#c2497c" fill-opacity="0.4"/>
    <circle cx="240" cy="720" r="260" fill="#8e2f5c" fill-opacity="0.45"/>
  </g>
  <g fill="none" stroke="#f2c4d8" stroke-opacity="0.12">
    <path d="M-60 260 C 300 140, 500 380, 850 260 S 1400 140, 1700 280" stroke-width="2"/>
    <path d="M-60 440 C 300 320, 500 560, 850 440 S 1400 320, 1700 460" stroke-width="1.4"/>
    <path d="M-60 620 C 300 500, 500 740, 850 620 S 1400 500, 1700 640" stroke-width="1"/>
  </g>
  <g fill="#f2c4d8">
    <ellipse cx="1120" cy="680" rx="40" ry="17" fill-opacity="0.08" transform="rotate(-20 1120 680)"/>
    <ellipse cx="480" cy="180" rx="34" ry="14" fill-opacity="0.07" transform="rotate(28 480 180)"/>
  </g>
</svg>
