<svg xmlns="http://www.w3.org/2000/svg" viewBox="0 0 1400 1050" preserveAspectRatio="xMidYMid slice">
  <defs>
    <linearGradient id="bg" x1="0" y1="0" x2="0.9" y2="1">
      <stop offset="0" stop-color="#191410"/>
      <stop offset="1" stop-color="#0a0805"/>
    </linearGradient>
    <linearGradient id="gold" x1="0" y1="0" x2="0" y2="1">
      <stop offset="0" stop-color="#e6bd75"/>
      <stop offset="1" stop-color="#966b2c"/>
    </linearGradient>
    <filter id="glow"><feGaussianBlur stdDeviation="75"/></filter>
  </defs>
  <rect width="1400" height="1050" fill="url(#bg)"/>
  <circle cx="420" cy="700" r="260" fill="#6d4d1e" fill-opacity="0.3" filter="url(#glow)"/>
  <g transform="translate(430 620) rotate(-18)">
    <rect x="-190" y="-36" width="380" height="34" rx="17" fill="none" stroke="url(#gold)" stroke-width="9" stroke-opacity="0.9"/>
    <g stroke="url(#gold)" stroke-width="8" stroke-linecap="round" stroke-opacity="0.75">
      <line x1="-160" y1="6" x2="-160" y2="112"/>
      <line x1="-112" y1="6" x2="-112" y2="118"/>
      <line x1="-64" y1="6" x2="-64" y2="112"/>
      <line x1="-16" y1="6" x2="-16" y2="118"/>
      <line x1="32" y1="6" x2="32" y2="112"/>
      <line x1="80" y1="6" x2="80" y2="118"/>
      <line x1="128" y1="6" x2="128" y2="112"/>
      <line x1="168" y1="6" x2="168" y2="110"/>
    </g>
  </g>
  <g transform="translate(960 340) rotate(30)" stroke="url(#gold)" fill="none" stroke-linecap="round">
    <path d="M-150 -22 L110 -22 Q160 -22 160 20 L160 30 L-150 30 Z" stroke-width="9" stroke-opacity="0.85"/>
    <line x1="-150" y1="4" x2="-260" y2="4" stroke-width="11" stroke-opacity="0.6"/>
  </g>
  <g fill="none" stroke="#e6bd75" stroke-opacity="0.12" stroke-width="2">
    <circle cx="980" cy="360" r="240"/>
    <circle cx="980" cy="360" r="310"/>
  </g>
  <g fill="#e6bd75">
    <circle cx="1180" cy="760" r="4.4" opacity="0.28"/>
    <circle cx="1240" cy="690" r="2.8" opacity="0.2"/>
    <circle cx="1120" cy="840" r="3.4" opacity="0.24"/>
  </g>
</svg>
