<svg xmlns="http://www.w3.org/2000/svg" width="1600" height="1000" viewBox="0 0 1600 1000">
  <defs>
    <linearGradient id="bg" x1="0" y1="0" x2="1" y2="1">
      <stop offset="0" stop-color="#fdf1ec"/>
      <stop offset=".55" stop-color="#f9dfd6"/>
      <stop offset="1" stop-color="#efc3c0"/>
    </linearGradient>
    <radialGradient id="glow1" cx=".3" cy=".25" r=".6">
      <stop offset="0" stop-color="#e8a2b8" stop-opacity=".55"/>
      <stop offset="1" stop-color="#e8a2b8" stop-opacity="0"/>
    </radialGradient>
    <radialGradient id="glow2" cx=".78" cy=".8" r=".55">
      <stop offset="0" stop-color="#d9b26a" stop-opacity=".4"/>
      <stop offset="1" stop-color="#d9b26a" stop-opacity="0"/>
    </radialGradient>
    <linearGradient id="arc" x1="0" y1="0" x2="1" y2="1">
      <stop offset="0" stop-color="#c2497c"/>
      <stop offset="1" stop-color="#d9832f"/>
    </linearGradient>
  </defs>
  <rect width="1600" height="1000" fill="url(#bg)"/>
  <rect width="1600" height="1000" fill="url(#glow1)"/>
  <rect width="1600" height="1000" fill="url(#glow2)"/>
  <g fill="none" stroke="url(#arc)" stroke-linecap="round" opacity=".5">
    <path d="M180 780 Q 480 420 900 560 T 1520 340" stroke-width="3"/>
    <path d="M120 640 Q 520 300 980 460 T 1560 240" stroke-width="1.5" opacity=".6"/>
  </g>
  <g fill="#c2497c" opacity=".35">
    <circle cx="1220" cy="230" r="7"/>
    <circle cx="1330" cy="180" r="4"/>
    <circle cx="300" cy="300" r="5"/>
    <circle cx="420" cy="220" r="3"/>
  </g>
  <g fill="none" stroke="#b98a4f" stroke-width="2" opacity=".5">
    <circle cx="1180" cy="620" r="130"/>
    <circle cx="1180" cy="620" r="86"/>
  </g>
  <g fill="#fff" opacity=".65">
    <path d="M360 560c26-44 66-44 92 0-26 44-66 44-92 0z"/>
    <path d="M406 514c-4-26 12-44 40-44-2 26-16 42-40 44z"/>
  </g>
</svg>
