<svg xmlns="http://www.w3.org/2000/svg" width="1600" height="1000" viewBox="0 0 1600 1000">
  <defs>
    <linearGradient id="bg2" x1="0" y1="0" x2="0" y2="1">
      <stop offset="0" stop-color="#f6e7ef"/>
      <stop offset=".6" stop-color="#ecc9dc"/>
      <stop offset="1" stop-color="#d8a3c3"/>
    </linearGradient>
    <radialGradient id="sun" cx=".72" cy=".3" r=".5">
      <stop offset="0" stop-color="#f3d9a4" stop-opacity=".8"/>
      <stop offset="1" stop-color="#f3d9a4" stop-opacity="0"/>
    </radialGradient>
  </defs>
  <rect width="1600" height="1000" fill="url(#bg2)"/>
  <rect width="1600" height="1000" fill="url(#sun)"/>
  <g fill="none" stroke="#a3487f" stroke-width="2" opacity=".45">
    <path d="M200 820 C 420 700 380 520 560 460 S 900 520 1040 380 1380 260 1480 180"/>
    <path d="M280 880 C 500 760 460 580 640 520" opacity=".5"/>
  </g>
  <g opacity=".55">
    <g fill="#fff">
      <ellipse cx="1150" cy="560" rx="46" ry="18" transform="rotate(-24 1150 560)"/>
      <ellipse cx="1210" cy="520" rx="46" ry="18" transform="rotate(-24 1210 520)"/>
      <ellipse cx="1180" cy="600" rx="46" ry="18" transform="rotate(-24 1180 600)"/>
    </g>
    <circle cx="1165" cy="558" r="10" fill="#c2497c"/>
  </g>
  <g fill="#fff" opacity=".5">
    <circle cx="360" cy="260" r="90"/>
    <circle cx="430" cy="330" r="60"/>
  </g>
  <g fill="#a3487f" opacity=".4">
    <circle cx="620" cy="200" r="5"/>
    <circle cx="700" cy="150" r="3"/>
    <circle cx="540" cy="140" r="4"/>
  </g>
</svg>
